<svg xmlns="http://www.w3.org/2000/svg" viewBox="0 0 512 512"><rect width="512" height="512" rx="50" ry="50" fill="#16a34a"/><path d="M35.550-24.300L35.550-24.300L10.800-235.350Q10.800-235.350 10.350-238.725Q9.900-242.100 11.700-247.050Q13.500-252 20.475-256.275Q27.450-260.550 42.750-261.900L42.750-261.900Q58.050-263.250 66.375-259.650Q74.700-256.050 78.300-250.650Q81.900-245.250 82.575-240.750Q83.250-236.250 83.250-236.250L83.250-236.250L90.450-167.400L132.300-244.350Q132.300-244.350 135.900-249.075Q139.500-253.800 148.500-257.400Q157.500-261 172.800-257.850L172.800-257.850Q188.550-254.700 193.950-249.300Q199.350-243.900 198.675-237.600Q198-231.300 194.400-225.450L194.400-225.450Q192.150-221.850 185.850-211.950Q179.550-202.050 171.225-189.450Q162.900-176.850 155.250-165.150Q147.600-153.450 142.425-145.575Q137.250-137.700 137.250-137.700L137.250-137.700L214.650-42.300Q214.650-42.300 217.350-38.025Q220.050-33.750 220.500-28.125Q220.950-22.500 214.425-18Q207.900-13.500 189.450-12.600L189.450-12.600Q171.450-12.150 160.650-17.775Q149.850-23.400 145.125-29.475Q140.400-35.550 140.400-35.550L140.400-35.550L102.600-92.250L109.350-23.400Q109.350-23.400 109.350-19.800Q109.350-16.200 106.875-11.700Q104.400-7.200 96.750-3.600Q89.100 0 74.250 0L74.250 0Q59.400 0 51.300-3.600Q43.200-7.200 39.825-12.150Q36.450-17.100 36-20.700Q35.550-24.300 35.550-24.300ZM302.400-213.750L302.400-213.750Q296.550-212.850 285.750-212.625Q274.950-212.400 263.700-213.750Q252.450-215.100 244.350-218.925Q236.250-222.750 235.350-230.400L235.350-230.400Q234.900-238.050 240.075-242.550Q245.250-247.050 252.450-249.525Q259.650-252 265.275-252.675Q270.900-253.350 270.900-253.350L270.900-253.350L396.900-265.050Q396.900-265.050 403.200-265.275Q409.500-265.500 417.825-264.600Q426.150-263.700 432.900-260.325Q439.650-256.950 440.100-249.750L440.100-249.750Q441-242.550 435.825-237.825Q430.650-233.100 423.450-230.175Q416.250-227.250 410.850-226.125Q405.450-225 405.450-225L405.450-225L376.650-220.500Q378.450-209.250 380.700-188.775Q382.950-168.300 385.200-143.550Q387.450-118.800 389.250-94.950Q391.050-71.100 392.175-52.200Q393.300-33.300 393.300-25.200L393.300-25.200Q393.300-14.850 387.675-9.675Q382.050-4.500 374.625-2.475Q367.200-0.450 361.575-0.225Q355.950 0 355.950 0L355.950 0Q355.950 0 350.100-0.225Q344.250-0.450 336.825-3.600Q329.400-6.750 323.775-15.300Q318.150-23.850 318.150-40.950L318.150-40.950Q318.150-56.250 316.575-78.300Q315-100.350 312.750-123.975Q310.500-147.600 308.025-167.850Q305.550-188.100 303.975-200.925Q302.400-213.750 302.400-213.750Z" fill="#fff9f9" transform="translate(30.75333595275879, 388.6600036621094)"/></svg>